<svg xmlns="http://www.w3.org/2000/svg" xmlns:xlink="http://www.w3.org/1999/xlink" width="170.717" height="20.188" viewBox="0 0 170.717 20.188">
  <defs>
    <clipPath id="clip-path">
      <rect id="Rectangle_6027" data-name="Rectangle 6027" width="170.717" height="20.188" fill="none"/>
    </clipPath>
  </defs>
  <g id="Baptist_Logo_White" data-name="Baptist Logo White" transform="translate(0 0)">
    <g id="Group_13663" data-name="Group 13663" transform="translate(0 0)" clip-path="url(#clip-path)">
      <path id="Path_142350" data-name="Path 142350" d="M3.149,1.6A3.105,3.105,0,0,0,0,4.648v12.9a3.129,3.129,0,0,0,3.149,3.1H25.282a3.108,3.108,0,0,0,3.15-3.055V4.7a3.13,3.13,0,0,0-3.15-3.1Z" transform="translate(0 -1.043)" fill="#68cef3"/>
      <path id="Path_142351" data-name="Path 142351" d="M27.711,21.794H5.578a1.842,1.842,0,0,1-1.864-1.814V7.081A1.8,1.8,0,0,1,5.578,5.314H27.711A1.842,1.842,0,0,1,29.575,7.13v12.9a1.8,1.8,0,0,1-1.864,1.768" transform="translate(-2.429 -3.476)" fill="#005699"/>
      <path id="Path_142352" data-name="Path 142352" d="M20.2,22.244a21.224,21.224,0,0,1-9.948-2.48l-.893-.476.474-.895a21.342,21.342,0,0,1,9.945-9.371l.422-.192.421.192a21.36,21.36,0,0,1,9.945,9.371l.475.895-.895.476a21.215,21.215,0,0,1-9.946,2.48" transform="translate(-6.122 -5.777)" fill="#68cef3"/>
      <path id="Path_142353" data-name="Path 142353" d="M25.062,14.771A19.443,19.443,0,0,1,33.33,22.4a19,19,0,0,1-16.539,0,19.448,19.448,0,0,1,8.271-7.629" transform="translate(-10.983 -9.662)" fill="#005699"/>
      <path id="Path_142354" data-name="Path 142354" d="M114.363,10.544A4.737,4.737,0,0,0,116.051,7c0-2.756-2.3-4.893-6.8-4.893l-10.066.2V3.374c3.148,0,3.656.476,3.656,4.469v7.2c0,3.992-.507,4.92-3.656,4.92v1.069l10.966-.2c4.949,0,7.591-2.419,7.591-5.4a5.352,5.352,0,0,0-3.375-4.891M106.715,3.8h2.306A2.932,2.932,0,0,1,112.058,7a2.871,2.871,0,0,1-3.037,3.092h-2.306Zm3.375,15.3H109.3c-2.306,0-2.588-.451-2.588-2.924v-4.33h3.375a3.363,3.363,0,0,1,3.6,3.6,3.406,3.406,0,0,1-3.6,3.656" transform="translate(-64.876 -1.378)" fill="#fff"/>
      <path id="Path_142355" data-name="Path 142355" d="M173.36,14.564,166.555,0h-1.013l-6.859,14.564c-1.406,3.092-1.913,3.823-4.722,3.823v1.069h8.94V18.387c-3.487,0-3.487-.9-2.418-3.149l.845-1.856h7.309l.843,1.856c1.069,2.249.731,3.149-2.474,3.149v1.069h9.964V18.343c-1.8-.2-2.387-1.136-3.611-3.779m-11.191-2.869,2.812-6.016,2.813,6.016Z" transform="translate(-100.709 0)" fill="#fff"/>
      <path id="Path_142356" data-name="Path 142356" d="M281.735,2.108l-.45,5.287h.956l.282-1.069c.449-1.856,1.068-2.53,5.117-2.53h1.795V15.043c0,3.992-.562,4.722-3.657,4.722v1.069h11.135V19.765c-3.151,0-3.656-.73-3.656-4.722V3.8h1.794c4.048,0,4.612.674,5.116,2.53l.285,1.069h.9l-.4-5.287Z" transform="translate(-183.995 -1.379)" fill="#fff"/>
      <path id="Path_142357" data-name="Path 142357" d="M451.761,2.108H432.542L432.09,7.4h.958l.281-1.069c.449-1.856,1.067-2.53,5.117-2.53h1.794V15.043c0,3.992-.562,4.722-3.656,4.722v1.069h11.134V19.765c-3.15,0-3.655-.73-3.655-4.722V3.8h1.794c4.048,0,4.611.674,5.116,2.53l.285,1.069h.9Z" transform="translate(-282.64 -1.379)" fill="#fff"/>
      <path id="Path_142358" data-name="Path 142358" d="M345.887,3.177c3.146,0,3.654.673,3.654,4.667v7.2c0,3.992-.508,4.722-3.654,4.722v1.069h10.992V19.765c-3.149,0-3.655-.73-3.655-4.722v-7.2c0-3.993.506-4.667,3.655-4.667V2.108H345.887Z" transform="translate(-226.252 -1.379)" fill="#fff"/>
      <path id="Path_142359" data-name="Path 142359" d="M398.5,9.11l-3.092-1.518c-2.7-1.239-3.882-2.025-3.882-3.488,0-1.405,1.466-2.3,3.038-2.3,2.981,0,4.444,2.193,4.836,4.836h1.181V0h-1.068a3.161,3.161,0,0,1-.731,1.516A7.041,7.041,0,0,0,394.394.056c-3.486,0-6.014,2.3-6.014,5,0,2.476,1.687,4.332,3.935,5.4l3.206,1.518c2.305,1.068,3.6,2.194,3.6,3.657,0,1.684-1.464,2.7-3.263,2.7-3.318,0-5.9-2.195-6.354-5.907H388.38v7.762h1.067a4.061,4.061,0,0,1,.9-1.914,8.314,8.314,0,0,0,5.061,1.914c3.77,0,6.86-2.476,6.86-6.018,0-1.687-1.068-3.768-3.768-5.06" transform="translate(-254.048 0)" fill="#fff"/>
      <path id="Path_142360" data-name="Path 142360" d="M233.607,2.108H223.77V3.177c3.147,0,3.654.673,3.654,4.667v7.2c0,3.571-.407,4.531-2.746,4.695v1.1h10.28V19.765c-3.149,0-3.653-.73-3.653-4.722v-.75h0l0-3.841V3.8h2.3a3.433,3.433,0,0,1,3.6,3.766,3.418,3.418,0,0,1-3.6,3.713h-1.135v1.742h1.135c4.949,0,7.594-2.473,7.594-5.455,0-3.091-2.644-5.454-7.594-5.454" transform="translate(-146.373 -1.379)" fill="#fff"/>
      <path id="Path_142361" data-name="Path 142361" d="M484.763,50.788a1.842,1.842,0,1,1,1.848-1.847,1.848,1.848,0,0,1-1.848,1.847m.011-3.5a1.659,1.659,0,1,0,1.643,1.653,1.642,1.642,0,0,0-1.643-1.653m.407,1.841.519.727h-.437l-.468-.667h-.4v.667h-.366V47.929h.86c.447,0,.743.229.743.616a.576.576,0,0,1-.448.585m-.31-.87h-.479v.61h.479c.239,0,.381-.117.381-.305s-.142-.305-.381-.305" transform="translate(-315.893 -30.813)" fill="#fff"/>
    </g>
  </g>
</svg>
